<svg width="95" height="29" viewBox="0 0 95 29" fill="none" xmlns="http://www.w3.org/2000/svg">
<path d="M61.02 3.78C61.4533 3.78 61.79 3.82333 62.03 3.91C62.27 3.99667 62.4733 4.08667 62.64 4.18C62.72 4.22667 62.7833 4.26333 62.83 4.29C62.8833 4.31 62.9333 4.32 62.98 4.32C63.0467 4.32 63.0933 4.28333 63.12 4.21C63.1533 4.13667 63.18 4.02667 63.2 3.88H63.43C63.4233 4.02 63.4133 4.18333 63.4 4.37C63.3933 4.55667 63.3867 4.80333 63.38 5.11C63.38 5.41667 63.38 5.82 63.38 6.32H63.15C63.1233 5.95333 63.0367 5.59667 62.89 5.25C62.75 4.90333 62.5533 4.61667 62.3 4.39C62.0533 4.16333 61.7567 4.05 61.41 4.05C61.1167 4.05 60.8733 4.13 60.68 4.29C60.4867 4.45 60.39 4.68 60.39 4.98C60.39 5.22667 60.45 5.44 60.57 5.62C60.69 5.79333 60.8767 5.97667 61.13 6.17C61.39 6.36333 61.73 6.60667 62.15 6.9C62.45 7.10667 62.72 7.31333 62.96 7.52C63.2067 7.72667 63.4033 7.96 63.55 8.22C63.6967 8.48 63.77 8.79333 63.77 9.16C63.77 9.60667 63.6433 9.97667 63.39 10.27C63.1433 10.5633 62.8133 10.7833 62.4 10.93C61.9867 11.07 61.5367 11.14 61.05 11.14C60.5967 11.14 60.2333 11.1 59.96 11.02C59.6933 10.94 59.4667 10.8567 59.28 10.77C59.1333 10.6767 59.02 10.63 58.94 10.63C58.8733 10.63 58.8233 10.6667 58.79 10.74C58.7633 10.8133 58.74 10.9233 58.72 11.07H58.49C58.5033 10.8967 58.51 10.6967 58.51 10.47C58.5167 10.2367 58.52 9.93667 58.52 9.57C58.5267 9.20333 58.53 8.73667 58.53 8.17H58.76C58.7867 8.63667 58.86 9.07333 58.98 9.48C59.1067 9.88667 59.2967 10.2167 59.55 10.47C59.81 10.7167 60.1533 10.84 60.58 10.84C60.8267 10.84 61.0367 10.8033 61.21 10.73C61.39 10.65 61.53 10.5367 61.63 10.39C61.73 10.2433 61.78 10.0667 61.78 9.86C61.78 9.58 61.7167 9.33667 61.59 9.13C61.4633 8.91667 61.29 8.72 61.07 8.54C60.8567 8.35333 60.6067 8.16667 60.32 7.98C60.0067 7.76667 59.7133 7.55333 59.44 7.34C59.1667 7.12667 58.9467 6.88667 58.78 6.62C58.62 6.35333 58.54 6.03667 58.54 5.67C58.54 5.23 58.6567 4.87333 58.89 4.6C59.1233 4.32 59.43 4.11333 59.81 3.98C60.19 3.84667 60.5933 3.78 61.02 3.78ZM66.6528 4.19V5.81H67.6328V6.01H66.6528V10.16C66.6528 10.2867 66.6761 10.38 66.7228 10.44C66.7695 10.4933 66.8461 10.52 66.9528 10.52C67.0261 10.52 67.1128 10.5 67.2128 10.46C67.3128 10.4133 67.4061 10.3367 67.4928 10.23L67.6428 10.35C67.5028 10.59 67.3161 10.7833 67.0828 10.93C66.8561 11.07 66.5695 11.14 66.2228 11.14C66.0028 11.14 65.8028 11.11 65.6228 11.05C65.4495 10.9967 65.3061 10.9133 65.1928 10.8C65.0461 10.6533 64.9528 10.4733 64.9128 10.26C64.8728 10.04 64.8528 9.75667 64.8528 9.41V6.01H64.0928V5.81H64.8528V4.63C65.2061 4.63 65.5261 4.59667 65.8128 4.53C66.1061 4.45667 66.3861 4.34333 66.6528 4.19ZM73.1089 5.7V9.91C73.1089 10.21 73.1489 10.4333 73.2289 10.58C73.3156 10.72 73.4622 10.79 73.6689 10.79V11C73.4622 10.98 73.2556 10.97 73.0489 10.97C72.7156 10.97 72.4056 10.98 72.1189 11C71.8322 11.02 71.5622 11.0567 71.3089 11.11V10.39C71.1489 10.6567 70.9322 10.85 70.6589 10.97C70.3922 11.0833 70.0789 11.14 69.7189 11.14C69.4122 11.14 69.1689 11.1 68.9889 11.02C68.8156 10.9467 68.6822 10.8533 68.5889 10.74C68.4889 10.62 68.4156 10.46 68.3689 10.26C68.3222 10.06 68.2989 9.79 68.2989 9.45V6.9C68.2989 6.6 68.2589 6.38 68.1789 6.24C68.0989 6.09333 67.9522 6.02 67.7389 6.02V5.81C67.9522 5.83 68.1589 5.84 68.3589 5.84C68.6922 5.84 69.0022 5.83 69.2889 5.81C69.5822 5.78333 69.8522 5.74667 70.0989 5.7V9.99C70.0989 10.13 70.1156 10.2467 70.1489 10.34C70.1822 10.4333 70.2356 10.5033 70.3089 10.55C70.3822 10.5967 70.4756 10.62 70.5889 10.62C70.7156 10.62 70.8322 10.59 70.9389 10.53C71.0456 10.47 71.1322 10.3867 71.1989 10.28C71.2722 10.1667 71.3089 10.04 71.3089 9.9V6.9C71.3089 6.6 71.2689 6.38 71.1889 6.24C71.1089 6.09333 70.9622 6.02 70.7489 6.02V5.81C70.9622 5.83 71.1689 5.84 71.3689 5.84C71.7022 5.84 72.0122 5.83 72.2989 5.81C72.5922 5.78333 72.8622 5.74667 73.1089 5.7ZM79.2196 3.18V9.9C79.2196 10.2 79.2596 10.4233 79.3396 10.57C79.4263 10.71 79.5729 10.78 79.7796 10.78V10.99C79.5729 10.97 79.3663 10.96 79.1596 10.96C78.8263 10.96 78.5163 10.97 78.2296 10.99C77.9429 11.01 77.6729 11.0467 77.4196 11.1V4.38C77.4196 4.08 77.3796 3.86 77.2996 3.72C77.2196 3.57333 77.0729 3.5 76.8596 3.5V3.29C77.0729 3.31 77.2796 3.32 77.4796 3.32C77.8129 3.32 78.1229 3.31 78.4096 3.29C78.7029 3.26333 78.9729 3.22667 79.2196 3.18ZM76.3796 5.67C76.6729 5.67 76.9196 5.70667 77.1196 5.78C77.3196 5.84667 77.4963 5.95667 77.6496 6.11L77.5396 6.22C77.4529 6.14667 77.3563 6.09333 77.2496 6.06C77.1429 6.02 77.0429 6 76.9496 6C76.6429 6 76.4129 6.19667 76.2596 6.59C76.1063 6.98333 76.0296 7.58667 76.0296 8.4C76.0296 8.98667 76.0596 9.44333 76.1196 9.77C76.1796 10.09 76.2596 10.3133 76.3596 10.44C76.4663 10.56 76.5796 10.62 76.6996 10.62C76.8863 10.62 77.0529 10.5533 77.1996 10.42C77.3463 10.28 77.4196 10.1067 77.4196 9.9V10.39C77.2863 10.6433 77.1229 10.8333 76.9296 10.96C76.7363 11.08 76.4929 11.14 76.1996 11.14C75.8196 11.14 75.4729 11.0467 75.1596 10.86C74.8529 10.6667 74.6096 10.3667 74.4296 9.96C74.2496 9.55333 74.1596 9.02333 74.1596 8.37C74.1596 7.76333 74.2496 7.26333 74.4296 6.87C74.6163 6.47 74.8763 6.17 75.2096 5.97C75.5429 5.77 75.9329 5.67 76.3796 5.67ZM81.5534 3.18C81.9 3.18 82.1667 3.25333 82.3534 3.4C82.5467 3.54 82.6434 3.75333 82.6434 4.04C82.6434 4.32667 82.5467 4.54333 82.3534 4.69C82.1667 4.83 81.9 4.9 81.5534 4.9C81.2067 4.9 80.9367 4.83 80.7434 4.69C80.5567 4.54333 80.4634 4.32667 80.4634 4.04C80.4634 3.75333 80.5567 3.54 80.7434 3.4C80.9367 3.25333 81.2067 3.18 81.5534 3.18ZM82.5134 5.7V10.07C82.5134 10.35 82.5534 10.54 82.6334 10.64C82.72 10.74 82.8667 10.79 83.0734 10.79V11C82.94 10.9933 82.74 10.9867 82.4734 10.98C82.2067 10.9667 81.9334 10.96 81.6534 10.96C81.3734 10.96 81.09 10.9667 80.8034 10.98C80.5167 10.9867 80.3 10.9933 80.1534 11V10.79C80.36 10.79 80.5034 10.74 80.5834 10.64C80.67 10.54 80.7134 10.35 80.7134 10.07V6.9C80.7134 6.6 80.6734 6.38 80.5934 6.24C80.5134 6.09333 80.3667 6.02 80.1534 6.02V5.81C80.3667 5.83 80.5734 5.84 80.7734 5.84C81.1067 5.84 81.4167 5.83 81.7034 5.81C81.9967 5.78333 82.2667 5.74667 82.5134 5.7ZM86.1241 5.67C86.6441 5.67 87.0941 5.76 87.4741 5.94C87.8608 6.11333 88.1608 6.4 88.3741 6.8C88.5875 7.2 88.6941 7.73667 88.6941 8.41C88.6941 9.08333 88.5875 9.62 88.3741 10.02C88.1608 10.42 87.8608 10.7067 87.4741 10.88C87.0941 11.0533 86.6441 11.14 86.1241 11.14C85.6108 11.14 85.1608 11.0533 84.7741 10.88C84.3875 10.7067 84.0875 10.42 83.8741 10.02C83.6608 9.62 83.5541 9.08333 83.5541 8.41C83.5541 7.73667 83.6608 7.2 83.8741 6.8C84.0875 6.4 84.3875 6.11333 84.7741 5.94C85.1608 5.76 85.6108 5.67 86.1241 5.67ZM86.1241 5.87C85.9241 5.87 85.7575 6.07 85.6241 6.47C85.4908 6.87 85.4241 7.51667 85.4241 8.41C85.4241 9.30333 85.4908 9.95 85.6241 10.35C85.7575 10.7433 85.9241 10.94 86.1241 10.94C86.3241 10.94 86.4908 10.7433 86.6241 10.35C86.7575 9.95 86.8241 9.30333 86.8241 8.41C86.8241 7.51667 86.7575 6.87 86.6241 6.47C86.4908 6.07 86.3241 5.87 86.1241 5.87ZM91.3159 5.67C91.6092 5.67 91.8659 5.70333 92.0859 5.77C92.3125 5.83 92.4759 5.88667 92.5759 5.94C92.8092 6.08 92.9525 5.99333 93.0059 5.68H93.2059C93.1925 5.87333 93.1825 6.11 93.1759 6.39C93.1692 6.66333 93.1659 7.02667 93.1659 7.48H92.9659C92.9392 7.23333 92.8792 6.99 92.7859 6.75C92.6992 6.51 92.5692 6.31 92.3959 6.15C92.2292 5.99 92.0092 5.91 91.7359 5.91C91.5692 5.91 91.4292 5.96 91.3159 6.06C91.2025 6.16 91.1459 6.29667 91.1459 6.47C91.1459 6.67 91.2059 6.85 91.3259 7.01C91.4459 7.16333 91.5992 7.31333 91.7859 7.46C91.9725 7.6 92.1592 7.75 92.3459 7.91C92.5525 8.07667 92.7359 8.24 92.8959 8.4C93.0559 8.56 93.1825 8.73667 93.2759 8.93C93.3759 9.11667 93.4259 9.34 93.4259 9.6C93.4259 9.9 93.3325 10.1667 93.1459 10.4C92.9659 10.6333 92.7225 10.8167 92.4159 10.95C92.1159 11.0767 91.7792 11.14 91.4059 11.14C91.1725 11.14 90.9692 11.1133 90.7959 11.06C90.6225 11.0133 90.4825 10.9567 90.3759 10.89C90.2692 10.8367 90.1759 10.7967 90.0959 10.77C90.0225 10.7367 89.9492 10.72 89.8759 10.72C89.8092 10.72 89.7525 10.7567 89.7059 10.83C89.6592 10.8967 89.6225 10.9767 89.5959 11.07H89.3959C89.4092 10.8567 89.4192 10.5967 89.4259 10.29C89.4325 9.98333 89.4359 9.57667 89.4359 9.07H89.6359C89.6759 9.42333 89.7525 9.73667 89.8659 10.01C89.9859 10.2833 90.1359 10.5 90.3159 10.66C90.5025 10.8133 90.7159 10.89 90.9559 10.89C91.0625 10.89 91.1592 10.87 91.2459 10.83C91.3325 10.79 91.4025 10.73 91.4559 10.65C91.5092 10.57 91.5359 10.4667 91.5359 10.34C91.5359 10.0467 91.4459 9.8 91.2659 9.6C91.0925 9.4 90.8725 9.18 90.6059 8.94C90.4059 8.75333 90.2159 8.57333 90.0359 8.4C89.8625 8.22 89.7192 8.02667 89.6059 7.82C89.4925 7.60667 89.4359 7.37 89.4359 7.11C89.4359 6.81 89.5225 6.55333 89.6959 6.34C89.8759 6.12667 90.1092 5.96333 90.3959 5.85C90.6825 5.73 90.9892 5.67 91.3159 5.67Z" fill="white"/>
<path d="M18.74 9.84V10.24C18.34 10.2533 18.0333 10.3067 17.82 10.4C17.62 10.48 17.4867 10.64 17.42 10.88C17.3533 11.1067 17.32 11.4667 17.32 11.96V21.88C17.32 22.36 17.3533 22.72 17.42 22.96C17.5 23.2 17.64 23.36 17.84 23.44C18.04 23.52 18.34 23.5733 18.74 23.6V24C18.3267 23.9733 17.8 23.96 17.16 23.96C16.52 23.9467 15.8667 23.94 15.2 23.94C14.48 23.94 13.8 23.9467 13.16 23.96C12.5333 23.96 12.0267 23.9733 11.64 24V23.6C12.0933 23.5733 12.4333 23.52 12.66 23.44C12.9 23.36 13.06 23.2 13.14 22.96C13.22 22.72 13.26 22.36 13.26 21.88V11.18L13.46 11.14L8.44 23.98H8.12L2.48 11.14V20.08C2.48 20.9733 2.51333 21.66 2.58 22.14C2.66 22.6067 2.84 22.9467 3.12 23.16C3.41333 23.36 3.87333 23.5067 4.5 23.6V24C4.23333 23.9733 3.88667 23.96 3.46 23.96C3.03333 23.9467 2.63333 23.94 2.26 23.94C1.96667 23.94 1.66667 23.9467 1.36 23.96C1.05333 23.96 0.8 23.9733 0.6 24V23.6C1.01333 23.5067 1.32 23.3667 1.52 23.18C1.72 22.98 1.85333 22.6667 1.92 22.24C1.98667 21.8133 2.02 21.2267 2.02 20.48V11.96C2.02 11.4667 1.98667 11.1067 1.92 10.88C1.85333 10.64 1.71333 10.48 1.5 10.4C1.3 10.3067 1 10.2533 0.6 10.24V9.84C0.8 9.85333 1.05333 9.86667 1.36 9.88C1.66667 9.89333 1.96667 9.9 2.26 9.9C3.03333 9.9 3.77333 9.89333 4.48 9.88C5.18667 9.86667 5.82667 9.85333 6.4 9.84L10.36 18.76L9.76 19.42L13.46 9.9C13.7267 9.9 14.0133 9.9 14.32 9.9C14.6267 9.9 14.92 9.9 15.2 9.9C15.8667 9.9 16.52 9.89333 17.16 9.88C17.8 9.86667 18.3267 9.85333 18.74 9.84ZM24.6463 13.34C25.2329 13.34 25.7529 13.4 26.2063 13.52C26.6596 13.64 27.0196 13.78 27.2863 13.94C27.6463 14.1533 27.9329 14.44 28.1463 14.8C28.3729 15.1467 28.4863 15.5533 28.4863 16.02C28.4863 16.5667 28.3063 17.0267 27.9463 17.4C27.5863 17.7733 27.1263 17.96 26.5663 17.96C25.9796 17.96 25.5263 17.7933 25.2063 17.46C24.8863 17.1267 24.7263 16.6933 24.7263 16.16C24.7263 15.6533 24.8863 15.2267 25.2063 14.88C25.5396 14.52 25.9263 14.28 26.3663 14.16C26.2729 14.0933 26.1596 14.04 26.0263 14C25.9063 13.9467 25.7529 13.92 25.5663 13.92C25.0863 13.92 24.6929 14.0667 24.3863 14.36C24.0929 14.64 23.8596 15.0133 23.6863 15.48C23.5263 15.9467 23.4129 16.4467 23.3463 16.98C23.2796 17.5133 23.2463 18.0333 23.2463 18.54C23.2463 19.4733 23.3729 20.2 23.6263 20.72C23.8796 21.24 24.1996 21.6 24.5863 21.8C24.9729 22 25.3596 22.1 25.7463 22.1C25.9329 22.1 26.1529 22.0733 26.4063 22.02C26.6729 21.9667 26.9596 21.8467 27.2663 21.66C27.5729 21.46 27.8729 21.16 28.1663 20.76L28.5063 20.88C28.3463 21.4133 28.0863 21.9467 27.7263 22.48C27.3796 23 26.9263 23.4333 26.3663 23.78C25.8063 24.1133 25.1263 24.28 24.3263 24.28C23.4329 24.28 22.6196 24.1067 21.8863 23.76C21.1663 23.4133 20.5863 22.84 20.1463 22.04C19.7196 21.24 19.5063 20.1667 19.5063 18.82C19.5063 17.54 19.7329 16.5 20.1863 15.7C20.6396 14.8867 21.2529 14.2933 22.0263 13.92C22.8129 13.5333 23.6863 13.34 24.6463 13.34ZM39.458 9.56C40.3246 9.56 40.998 9.64667 41.478 9.82C41.958 9.99333 42.3646 10.1733 42.698 10.36C42.858 10.4533 42.9846 10.5267 43.078 10.58C43.1846 10.62 43.2846 10.64 43.378 10.64C43.5113 10.64 43.6046 10.5667 43.658 10.42C43.7246 10.2733 43.778 10.0533 43.818 9.76H44.278C44.2646 10.04 44.2446 10.3667 44.218 10.74C44.2046 11.1133 44.1913 11.6067 44.178 12.22C44.178 12.8333 44.178 13.64 44.178 14.64H43.718C43.6646 13.9067 43.4913 13.1933 43.198 12.5C42.918 11.8067 42.5246 11.2333 42.018 10.78C41.5246 10.3267 40.9313 10.1 40.238 10.1C39.6513 10.1 39.1646 10.26 38.778 10.58C38.3913 10.9 38.198 11.36 38.198 11.96C38.198 12.4533 38.318 12.88 38.558 13.24C38.798 13.5867 39.1713 13.9533 39.678 14.34C40.198 14.7267 40.878 15.2133 41.718 15.8C42.318 16.2133 42.858 16.6267 43.338 17.04C43.8313 17.4533 44.2246 17.92 44.518 18.44C44.8113 18.96 44.958 19.5867 44.958 20.32C44.958 21.2133 44.7046 21.9533 44.198 22.54C43.7046 23.1267 43.0446 23.5667 42.218 23.86C41.3913 24.14 40.4913 24.28 39.518 24.28C38.6113 24.28 37.8846 24.2 37.338 24.04C36.8046 23.88 36.3513 23.7133 35.978 23.54C35.6846 23.3533 35.458 23.26 35.298 23.26C35.1646 23.26 35.0646 23.3333 34.998 23.48C34.9446 23.6267 34.898 23.8467 34.858 24.14H34.398C34.4246 23.7933 34.438 23.3933 34.438 22.94C34.4513 22.4733 34.458 21.8733 34.458 21.14C34.4713 20.4067 34.478 19.4733 34.478 18.34H34.938C34.9913 19.2733 35.138 20.1467 35.378 20.96C35.6313 21.7733 36.0113 22.4333 36.518 22.94C37.038 23.4333 37.7246 23.68 38.578 23.68C39.0713 23.68 39.4913 23.6067 39.838 23.46C40.198 23.3 40.478 23.0733 40.678 22.78C40.878 22.4867 40.978 22.1333 40.978 21.72C40.978 21.16 40.8513 20.6733 40.598 20.26C40.3446 19.8333 39.998 19.44 39.558 19.08C39.1313 18.7067 38.6313 18.3333 38.058 17.96C37.4313 17.5333 36.8446 17.1067 36.298 16.68C35.7513 16.2533 35.3113 15.7733 34.978 15.24C34.658 14.7067 34.498 14.0733 34.498 13.34C34.498 12.46 34.7313 11.7467 35.198 11.2C35.6646 10.64 36.278 10.2267 37.038 9.96C37.798 9.69333 38.6046 9.56 39.458 9.56ZM50.7236 10.38V13.62H52.6836V14.02H50.7236V22.32C50.7236 22.5733 50.7703 22.76 50.8636 22.88C50.9569 22.9867 51.1103 23.04 51.3236 23.04C51.4703 23.04 51.6436 23 51.8436 22.92C52.0436 22.8267 52.2303 22.6733 52.4036 22.46L52.7036 22.7C52.4236 23.18 52.0503 23.5667 51.5836 23.86C51.1303 24.14 50.5569 24.28 49.8636 24.28C49.4236 24.28 49.0236 24.22 48.6636 24.1C48.3169 23.9933 48.0303 23.8267 47.8036 23.6C47.5103 23.3067 47.3236 22.9467 47.2436 22.52C47.1636 22.08 47.1236 21.5133 47.1236 20.82V14.02H45.6036V13.62H47.1236V11.26C47.8303 11.26 48.4703 11.1933 49.0436 11.06C49.6303 10.9133 50.1903 10.6867 50.7236 10.38ZM58.3186 13.34C59.4919 13.34 60.4119 13.6867 61.0786 14.38C61.7586 15.06 62.0986 16.2067 62.0986 17.82H55.8386L55.7986 17.44H59.1786C59.1919 16.7867 59.1653 16.1867 59.0986 15.64C59.0319 15.08 58.9253 14.6333 58.7786 14.3C58.6319 13.9667 58.4319 13.8 58.1786 13.8C57.8186 13.8 57.5253 14.0867 57.2986 14.66C57.0719 15.22 56.9253 16.1867 56.8586 17.56L56.9386 17.72C56.9253 17.8533 56.9186 17.9867 56.9186 18.12C56.9186 18.2533 56.9186 18.3933 56.9186 18.54C56.9186 19.4733 57.0319 20.2 57.2586 20.72C57.4986 21.24 57.7919 21.6 58.1386 21.8C58.4986 22 58.8586 22.1 59.2186 22.1C59.4053 22.1 59.6253 22.0733 59.8786 22.02C60.1453 21.9667 60.4319 21.8467 60.7386 21.66C61.0453 21.46 61.3453 21.16 61.6386 20.76L61.9786 20.88C61.8186 21.4133 61.5586 21.9467 61.1986 22.48C60.8519 23 60.3986 23.4333 59.8386 23.78C59.2786 24.1133 58.5986 24.28 57.7986 24.28C56.9453 24.28 56.1653 24.1067 55.4586 23.76C54.7653 23.4133 54.2119 22.84 53.7986 22.04C53.3853 21.24 53.1786 20.1667 53.1786 18.82C53.1786 17.54 53.4053 16.5 53.8586 15.7C54.3119 14.8867 54.9253 14.2933 55.6986 13.92C56.4853 13.5333 57.3586 13.34 58.3186 13.34ZM72.7638 13.62V14.04C72.5104 14.1333 72.2638 14.32 72.0238 14.6C71.7971 14.8667 71.5704 15.3267 71.3438 15.98L68.6438 24C68.3238 23.9733 67.9971 23.96 67.6638 23.96C67.3438 23.96 67.0238 23.9733 66.7038 24L63.2238 15.16C63.0238 14.6533 62.8171 14.34 62.6038 14.22C62.3904 14.1 62.2104 14.04 62.0637 14.04V13.62C62.5971 13.66 63.1504 13.6933 63.7238 13.72C64.2971 13.7333 64.9304 13.74 65.6238 13.74C66.0371 13.74 66.4704 13.7267 66.9238 13.7C67.3904 13.6733 67.8237 13.6467 68.2237 13.62V14.04C67.9838 14.04 67.7638 14.0533 67.5638 14.08C67.3771 14.0933 67.2371 14.1533 67.1438 14.26C67.0638 14.3533 67.0504 14.5333 67.1038 14.8L69.3438 21.04L69.0838 21.44L70.2038 18.1C70.5104 17.1933 70.6371 16.4467 70.5838 15.86C70.5438 15.2733 70.3904 14.8333 70.1238 14.54C69.8571 14.2333 69.5238 14.0667 69.1238 14.04V13.62C69.3104 13.6333 69.5371 13.6467 69.8038 13.66C70.0704 13.6733 70.3304 13.6867 70.5838 13.7C70.8504 13.7 71.0638 13.7 71.2238 13.7C71.4638 13.7 71.7438 13.6933 72.0638 13.68C72.3838 13.6667 72.6171 13.6467 72.7638 13.62ZM78.1233 13.34C79.2966 13.34 80.2166 13.6867 80.8833 14.38C81.5633 15.06 81.9033 16.2067 81.9033 17.82H75.6433L75.6033 17.44H78.9833C78.9966 16.7867 78.9699 16.1867 78.9033 15.64C78.8366 15.08 78.7299 14.6333 78.5833 14.3C78.4366 13.9667 78.2366 13.8 77.9833 13.8C77.6233 13.8 77.3299 14.0867 77.1033 14.66C76.8766 15.22 76.7299 16.1867 76.6633 17.56L76.7433 17.72C76.7299 17.8533 76.7233 17.9867 76.7233 18.12C76.7233 18.2533 76.7233 18.3933 76.7233 18.54C76.7233 19.4733 76.8366 20.2 77.0633 20.72C77.3033 21.24 77.5966 21.6 77.9433 21.8C78.3033 22 78.6633 22.1 79.0233 22.1C79.2099 22.1 79.4299 22.0733 79.6833 22.02C79.9499 21.9667 80.2366 21.8467 80.5433 21.66C80.8499 21.46 81.1499 21.16 81.4433 20.76L81.7833 20.88C81.6233 21.4133 81.3633 21.9467 81.0033 22.48C80.6566 23 80.2033 23.4333 79.6433 23.78C79.0833 24.1133 78.4033 24.28 77.6033 24.28C76.7499 24.28 75.9699 24.1067 75.2633 23.76C74.5699 23.4133 74.0166 22.84 73.6033 22.04C73.1899 21.24 72.9833 20.1667 72.9833 18.82C72.9833 17.54 73.2099 16.5 73.6633 15.7C74.1166 14.8867 74.7299 14.2933 75.5033 13.92C76.2899 13.5333 77.1633 13.34 78.1233 13.34ZM90.5466 13.34C91.1599 13.34 91.6399 13.42 91.9866 13.58C92.3466 13.7267 92.6199 13.9133 92.8066 14.14C93.0066 14.38 93.1532 14.7 93.2466 15.1C93.3399 15.5 93.3866 16.04 93.3866 16.72V22.14C93.3866 22.7 93.4666 23.08 93.6266 23.28C93.7999 23.48 94.0932 23.58 94.5066 23.58V24C94.2399 23.9867 93.8332 23.9733 93.2866 23.96C92.7532 23.9333 92.2266 23.92 91.7066 23.92C91.1466 23.92 90.5999 23.9333 90.0666 23.96C89.5332 23.9733 89.1332 23.9867 88.8666 24V23.58C89.2132 23.58 89.4532 23.48 89.5866 23.28C89.7199 23.08 89.7866 22.7 89.7866 22.14V15.64C89.7866 15.36 89.7532 15.1267 89.6866 14.94C89.6199 14.7533 89.5132 14.6133 89.3666 14.52C89.2332 14.4267 89.0466 14.38 88.8066 14.38C88.5666 14.38 88.3332 14.44 88.1066 14.56C87.8932 14.68 87.7132 14.8533 87.5666 15.08C87.4332 15.2933 87.3666 15.54 87.3666 15.82V22.14C87.3666 22.7 87.4332 23.08 87.5666 23.28C87.7132 23.48 87.9532 23.58 88.2866 23.58V24C88.0332 23.9867 87.6599 23.9733 87.1666 23.96C86.6732 23.9333 86.1666 23.92 85.6466 23.92C85.0866 23.92 84.5199 23.9333 83.9466 23.96C83.3732 23.9733 82.9399 23.9867 82.6466 24V23.58C83.0599 23.58 83.3466 23.48 83.5066 23.28C83.6799 23.08 83.7666 22.7 83.7666 22.14V15.8C83.7666 15.2 83.6866 14.76 83.5266 14.48C83.3666 14.1867 83.0732 14.04 82.6466 14.04V13.62C83.0732 13.66 83.4866 13.68 83.8866 13.68C84.5532 13.68 85.1732 13.66 85.7466 13.62C86.3332 13.5667 86.8732 13.4933 87.3666 13.4V14.84C87.6866 14.3067 88.1132 13.9267 88.6466 13.7C89.1932 13.46 89.8266 13.34 90.5466 13.34Z" fill="white"/>
</svg>
